<svg width="24" height="26" viewBox="0 0 24 26" fill="none" xmlns="http://www.w3.org/2000/svg">
<path d="M15.573 6.75697C15.573 8.61683 14.0653 10.1245 12.2055 10.1245C10.3456 10.1245 8.83789 8.61683 8.83789 6.75697C8.83789 4.89712 10.3456 3.3894 12.2055 3.3894C14.0653 3.3894 15.573 4.89712 15.573 6.75697Z" stroke="#898989" stroke-width="2.02054"/>
<path d="M8.83785 13.4922L5.28608 15.86C4.34922 16.4846 3.7865 17.5361 3.7865 18.662V20.3396C3.7865 21.2075 4.4901 21.9111 5.35803 21.9111H12.2054" stroke="#898989" stroke-width="2.02054" stroke-linecap="round" stroke-linejoin="round"/>
<path d="M19.7825 6.75708V14.3341M19.7825 14.3341V18.0971C19.7825 18.8462 19.249 19.4996 18.5002 19.476C17.262 19.437 15.573 18.9929 15.573 16.8598C15.573 13.4922 19.7825 14.3341 19.7825 14.3341Z" stroke="#898989" stroke-width="1.68378" stroke-linecap="round" stroke-linejoin="round"/>
</svg>
