<svg width="25" height="25" viewBox="0 0 25 25" fill="none" xmlns="http://www.w3.org/2000/svg">
<path d="M15.0298 1.62158H10.7971C10.5149 1.62158 10.2703 1.71325 10.0634 1.89658C9.85647 2.07991 9.73419 2.30908 9.69657 2.58408L9.35795 5.14158C9.11339 5.23325 8.88313 5.34325 8.66716 5.47158C8.45045 5.59991 8.23862 5.73741 8.03169 5.88408L5.5767 4.89408C5.31333 4.80242 5.04996 4.79325 4.78659 4.86658C4.52322 4.93992 4.31628 5.09575 4.16578 5.33408L2.07763 8.88158C1.92713 9.11992 1.8801 9.37658 1.93654 9.65158C1.99298 9.92658 2.13407 10.1466 2.35981 10.3116L4.47619 11.8791C4.45737 12.0074 4.44797 12.1313 4.44797 12.2509V12.9934C4.44797 13.1122 4.45737 13.2357 4.47619 13.3641L2.35981 14.9316C2.13407 15.0966 1.99298 15.3166 1.93654 15.5916C1.8801 15.8666 1.92713 16.1232 2.07763 16.3616L4.16578 19.9091C4.29747 20.1657 4.49951 20.3263 4.77191 20.3909C5.04507 20.4547 5.31333 20.4407 5.5767 20.3491L8.03169 19.3591C8.23862 19.5057 8.45496 19.6432 8.68071 19.7716C8.90646 19.8999 9.1322 20.0099 9.35795 20.1016L9.69657 22.6591C9.73419 22.9341 9.85647 23.1632 10.0634 23.3466C10.2703 23.5299 10.5149 23.6216 10.7971 23.6216H15.0298C15.312 23.6216 15.5566 23.5299 15.7635 23.3466C15.9704 23.1632 16.0927 22.9341 16.1303 22.6591L16.469 20.1016C16.7135 20.0099 16.9442 19.8999 17.1609 19.7716C17.3768 19.6432 17.5883 19.5057 17.7952 19.3591L20.2502 20.3491C20.5136 20.4407 20.7769 20.4499 21.0403 20.3766C21.3037 20.3032 21.5106 20.1474 21.6611 19.9091L23.7493 16.3616C23.8998 16.1232 23.9468 15.8666 23.8904 15.5916C23.8339 15.3166 23.6928 15.0966 23.4671 14.9316L21.3507 13.3641C21.3695 13.2357 21.3789 13.1122 21.3789 12.9934V12.2509C21.3789 12.1313 21.3601 12.0074 21.3225 11.8791L23.4389 10.3116C23.6646 10.1466 23.8057 9.92658 23.8621 9.65158C23.9186 9.37658 23.8716 9.11992 23.7211 8.88158L21.6329 5.36158C21.4824 5.12325 21.271 4.96265 20.9986 4.87978C20.7254 4.79765 20.4571 4.80242 20.1938 4.89408L17.7952 5.88408C17.5883 5.73741 17.3719 5.59991 17.1462 5.47158C16.9204 5.34325 16.6947 5.23325 16.469 5.14158L16.1303 2.58408C16.0927 2.30908 15.9704 2.07991 15.7635 1.89658C15.5566 1.71325 15.312 1.62158 15.0298 1.62158Z" stroke="#898989" stroke-width="2"/>
<circle cx="3.34783" cy="3.34783" r="3.34783" transform="matrix(1 0 0 -1 9.56561 15.9694)" stroke="#898989" stroke-width="2"/>
</svg>
