<svg width="24" height="20" viewBox="0 0 24 20" fill="none" xmlns="http://www.w3.org/2000/svg">
<path d="M14.0693 2.38947L12.2054 4.19541L10.3416 2.38947C8.38724 0.495796 5.25209 0.600352 3.42823 2.62003C1.65847 4.5798 1.41482 7.51521 3.01738 9.61392C3.21432 9.87182 3.40795 10.1188 3.59223 10.3449C4.75867 11.7758 7.30368 14.2748 8.57882 15.6159C9.52091 16.6067 10.3677 17.433 11.0057 18.0349C11.6794 18.6705 12.7194 18.6566 13.3944 18.0224C14.5707 16.917 16.3747 15.1953 17.6453 13.8589C18.9205 12.5178 19.6522 11.7758 20.8186 10.3449C21.0029 10.1188 21.1965 9.87182 21.3935 9.61392C22.996 7.51521 22.7524 4.5798 20.9826 2.62003C19.1588 0.600352 16.0236 0.495794 14.0693 2.38947Z" stroke="#898989" stroke-width="2.02054" stroke-linecap="round" stroke-linejoin="round"/>
</svg>
