<svg width="35" height="26" viewBox="0 0 35 26" fill="none" xmlns="http://www.w3.org/2000/svg">
<path d="M26.5783 7.10817C26.5783 8.96803 25.0706 10.4757 23.2107 10.4757C21.3509 10.4757 19.8431 8.96803 19.8431 7.10817C19.8431 5.24831 21.3509 3.7406 23.2107 3.7406C25.0706 3.7406 26.5783 5.24831 26.5783 7.10817Z" stroke="#898989" stroke-width="2.02054"/>
<path d="M16.2913 16.2112L17.0411 15.7114C18.8681 14.4934 21.0148 13.8434 23.2107 13.8434C25.4065 13.8434 27.5532 14.4934 29.3802 15.7114L30.13 16.2112C31.0669 16.8358 31.6296 17.8873 31.6296 19.0132V20.6908C31.6296 21.5587 30.926 22.2623 30.0581 22.2623H23.2107H16.3633C15.4953 22.2623 14.7917 21.5587 14.7917 20.6908V19.0132C14.7917 17.8873 15.3545 16.8358 16.2913 16.2112Z" stroke="#898989" stroke-width="2.02054" stroke-linecap="round" stroke-linejoin="round"/>
<path d="M15.1594 7.10817C15.1594 8.96803 13.6517 10.4757 11.7919 10.4757C9.932 10.4757 8.42429 8.96803 8.42429 7.10817C8.42429 5.24831 9.932 3.7406 11.7919 3.7406C13.6517 3.7406 15.1594 5.24831 15.1594 7.10817Z" stroke="#898989" stroke-width="2.02054"/>
<path d="M11.7918 13.8434V13.8434C9.59602 13.8434 7.44933 14.4934 5.62229 15.7114L4.8725 16.2112C3.93565 16.8358 3.37292 17.8873 3.37292 19.0132V20.6908C3.37292 21.5587 4.07652 22.2623 4.94446 22.2623H11.0054" stroke="#898989" stroke-width="2.02054" stroke-linecap="round" stroke-linejoin="round"/>
</svg>
