<svg width="29" height="30" viewBox="0 0 29 30" fill="none" xmlns="http://www.w3.org/2000/svg">
<path d="M4.9964 8.06491V8.06491C6.48246 8.06491 7.87187 8.8016 8.70573 10.0317L9.49185 11.1913L10.5516 12.7545M22.5382 20.5704H17.9051C16.6629 20.5704 15.4702 20.0841 14.5822 19.2155L13.7086 18.3611M22.5382 20.5704L19.2528 23.9053M22.5382 20.5704L19.2528 17.2356" stroke="#898989" stroke-width="1.90085" stroke-linecap="round" stroke-linejoin="round"/>
<path d="M4.9964 22.4799V22.4799C6.48614 22.4799 7.88277 21.7552 8.74051 20.5372L14.5477 12.2906C15.4378 11.0266 16.8871 10.2745 18.4331 10.2745H22.5382M22.5382 10.2745L19.2528 6.9397M22.5382 10.2745L19.2528 13.6094" stroke="#898989" stroke-width="1.90085" stroke-linecap="round" stroke-linejoin="round"/>
</svg>
