<svg width="21" height="24" viewBox="0 0 21 24" fill="none" xmlns="http://www.w3.org/2000/svg">
<path d="M15.5013 4.25905C15.71 4.70258 16.2388 4.89292 16.6823 4.68419C17.1259 4.47545 17.3162 3.94669 17.1075 3.50316L15.5013 4.25905ZM4.57228 7.98169C5.4484 7.83951 5.44846 7.83991 5.44852 7.84028C5.44854 7.84037 5.44859 7.84072 5.44862 7.8409C5.44868 7.84126 5.44872 7.84152 5.44874 7.84167C5.44879 7.84197 5.44877 7.84186 5.44869 7.84134C5.44853 7.84029 5.44812 7.83761 5.4475 7.83334C5.44626 7.82481 5.44417 7.80997 5.44151 7.78924C5.4362 7.74774 5.42866 7.68288 5.42111 7.59802C5.406 7.42793 5.39111 7.1798 5.39381 6.88024C5.39928 6.27499 5.4764 5.49185 5.74579 4.72586C6.01278 3.96668 6.46015 3.24559 7.20015 2.70922C7.93792 2.17446 9.04176 1.76868 10.7189 1.76868V-0.00646973C8.7466 -0.00646973 7.25737 0.475322 6.15836 1.27193C5.06158 2.06691 4.42848 3.12097 4.07118 4.13693C3.71628 5.14609 3.6253 6.1381 3.61874 6.8642C3.61543 7.23033 3.63354 7.53693 3.65294 7.75515C3.66265 7.86445 3.67273 7.95214 3.68074 8.01466C3.68474 8.04593 3.68823 8.07096 3.6909 8.0893C3.69224 8.09847 3.69337 8.10597 3.69426 8.11175C3.69471 8.11464 3.69509 8.1171 3.69541 8.11912C3.69557 8.12013 3.69572 8.12103 3.69584 8.12183C3.69591 8.12222 3.69599 8.12274 3.69602 8.12293C3.6961 8.12342 3.69617 8.12387 4.57228 7.98169ZM10.7189 1.76868C12.2238 1.76868 13.2656 2.09564 13.9938 2.54582C14.7199 2.99472 15.192 3.60185 15.5013 4.25905L17.1075 3.50316C16.676 2.58642 15.9909 1.69354 14.9273 1.03593C13.8656 0.379597 12.4851 -0.00646973 10.7189 -0.00646973V1.76868Z" fill="#898989"/>
<path d="M16.9319 8.42542H4.50592C3.03534 8.42542 1.8432 9.61756 1.8432 11.0881V20.4077C1.8432 21.8782 3.03534 23.0704 4.50592 23.0704H16.9319C18.4025 23.0704 19.5947 21.8782 19.5947 20.4077V11.0881C19.5947 9.61756 18.4025 8.42542 16.9319 8.42542Z" stroke="#898989" stroke-width="1.77515"/>
<circle cx="10.7189" cy="15.9698" r="2.66272" stroke="#898989" stroke-width="1.77515"/>
</svg>
