<svg width="24" height="24" viewBox="0 0 24 24" fill="none" xmlns="http://www.w3.org/2000/svg">
<g clip-path="url(#clip0_2005_2076)">
<path d="M4.88694 15.7896C1.93875 14.3155 1.93874 10.1083 4.88694 8.63421L13.5306 4.31235C13.9739 4.09072 14.4955 4.41305 14.4955 4.90864L14.4955 19.5152C14.4955 20.0108 13.9739 20.3331 13.5306 20.1115L4.88694 15.7896Z" stroke="#898989" stroke-width="2"/>
<path d="M18.8291 17.2119C19.6098 16.999 20.3318 16.5265 20.9071 15.8381C21.7109 14.8764 22.1624 13.572 22.1624 12.2119C22.1624 10.8518 21.7109 9.54745 20.9071 8.58572C20.3318 7.89734 19.6098 7.42487 18.8291 7.21191" stroke="#898989" stroke-width="1.66667" stroke-linecap="round"/>
<path d="M17.9959 11.7057C17.9959 11.525 18.1478 11.3728 18.3148 11.4419C18.4159 11.4838 18.5078 11.5452 18.5852 11.6226C18.6625 11.7 18.7239 11.7918 18.7658 11.8929C18.8077 11.994 18.8292 12.1024 18.8292 12.2118C18.8292 12.3213 18.8077 12.4296 18.7658 12.5307C18.7239 12.6318 18.6625 12.7237 18.5852 12.8011C18.5078 12.8785 18.4159 12.9399 18.3148 12.9817C18.1478 13.0509 17.9959 12.8987 17.9959 12.7179L17.9959 12.2118L17.9959 11.7057Z" fill="#898989" stroke="#898989" stroke-width="0.833333"/>
</g>
<defs>
<clipPath id="clip0_2005_2076">
<rect width="23.3333" height="23.3333" fill="white" transform="translate(0.495636 0.54541)"/>
</clipPath>
</defs>
</svg>
